<svg xmlns="http://www.w3.org/2000/svg" width="35.259" height="35.186" viewBox="0 0 35.259 35.186">
    <g>
        <path d="M35.821 18.156A17.629 17.629 0 1 1 18.192.563a17.61 17.61 0 0 1 17.629 17.593zM18.665 6.38a9.212 9.212 0 0 0-8.285 4.52.851.851 0 0 0 .193 1.153l2.467 1.866a.854.854 0 0 0 1.185-.151c1.27-1.607 2.141-2.539 4.073-2.539 1.452 0 3.249.933 3.249 2.338 0 1.062-.879 1.608-2.313 2.41-1.672.935-3.885 2.1-3.885 5.013v.284a.852.852 0 0 0 .853.851h3.981a.852.852 0 0 0 .853-.851v-.095c0-2.019 5.913-2.1 5.913-7.567 0-4.112-4.277-7.232-8.284-7.232zm-.473 17.593a3.263 3.263 0 1 0 3.27 3.263 3.27 3.27 0 0 0-3.27-3.263z" transform="translate(7156 -1072.814) translate(-7156.563 1072.251)"/>
    </g>
</svg>
